<svg width="1920" height="1003" viewBox="0 0 1920 1003" fill="none" xmlns="http://www.w3.org/2000/svg">
<path d="M1781.67 1002.45C1766.01 1002.45 1758.19 982.51 1769.24 970.821L1920 816.5C1920.5 823 1920 838.5 1920 843C1920 859 1920 858.5 1920 866L1794.1 997.036C1790.8 1000.49 1786.33 1002.45 1781.67 1002.45Z" fill="url(#paint0_linear_209_192)"/>
<path d="M-0.000723362 189C0.000196338 181.5 -0.000677109 182 -0.000976562 175.5L125.637 101.813C128.936 99.8833 133.411 98.8096 138.07 98.8096C153.733 98.8096 161.552 109.867 150.503 116.347L-0.000723362 209C-0.000976562 200 -0.00104618 196.5 -0.000723362 189Z" fill="url(#paint1_linear_209_192)"/>
<path d="M867.469 55.8348C851.806 55.8348 843.987 44.7778 855.036 38.2971L923 5.46713e-05C927 -8.03471e-05 934.341 0.000153377 939 0.000153377C954.662 0.000153377 957.5 0.000164105 965 0.000164105L879.878 52.8181C876.58 54.7483 872.128 55.8348 867.469 55.8348Z" fill="url(#paint2_linear_209_192)"/>
<defs>
<linearGradient id="paint0_linear_209_192" x1="1764.07" y1="779.069" x2="2187.83" y2="779.069" gradientUnits="userSpaceOnUse">
<stop stop-color="#6DC1F1"/>
<stop offset="1" stop-color="#785DFF"/>
</linearGradient>
<linearGradient id="paint1_linear_209_192" x1="-268.101" y1="222.655" x2="155.66" y2="222.655" gradientUnits="userSpaceOnUse">
<stop stop-color="#6DC1F1"/>
<stop offset="1" stop-color="#785DFF"/>
</linearGradient>
<linearGradient id="paint2_linear_209_192" x1="849.858" y1="-19.0822" x2="1106.21" y2="-19.0822" gradientUnits="userSpaceOnUse">
<stop stop-color="#785DFF"/>
<stop offset="1" stop-color="#6DC1F1"/>
</linearGradient>
</defs>
</svg>
