<svg width="825" height="812" viewBox="0 0 825 812" fill="none" xmlns="http://www.w3.org/2000/svg">
<path d="M130.904 298.806V580.113C130.904 613.245 148.181 644.002 176.507 661.225L400.162 797.394C430.517 815.885 468.67 815.885 499.025 797.394L722.68 661.225C751.005 643.979 768.282 613.245 768.282 580.113V298.83C768.282 265.698 751.005 234.941 722.68 217.718L499.025 81.5494C468.67 63.0584 430.517 63.0584 400.162 81.5494L176.507 217.718C148.181 234.918 130.904 265.675 130.904 298.806Z" fill="url(#paint0_linear_209_191)"/>
<path d="M313.453 446.757C297.791 446.757 289.971 426.814 301.02 415.124L689.578 5.41819C692.877 1.93672 697.352 0 702.011 0C717.673 0 725.493 19.9435 714.444 31.6329L325.886 441.339C322.587 444.797 318.112 446.757 313.453 446.757Z" fill="url(#paint1_linear_209_191)"/>
<path d="M134.179 784.897C118.517 784.897 110.698 764.954 121.747 753.264L510.305 343.558C513.603 340.077 518.078 338.14 522.737 338.14C538.4 338.14 546.219 358.084 535.17 369.773L146.612 779.479C143.314 782.96 138.839 784.897 134.179 784.897Z" fill="url(#paint2_linear_209_191)"/>
<path d="M418.476 786.695C402.814 786.695 394.995 766.752 406.043 755.063L794.601 345.357C797.9 341.875 802.375 339.938 807.034 339.938C822.697 339.938 830.516 359.882 819.467 371.571L430.909 781.277C427.611 784.759 423.136 786.695 418.476 786.695Z" fill="url(#paint3_linear_209_191)"/>
<path d="M227.576 358.476C211.914 358.476 204.094 338.532 215.143 326.843L366.83 166.88C370.128 163.399 374.603 161.462 379.262 161.462C394.925 161.462 402.744 181.405 391.695 193.095L240.009 353.058C236.687 356.539 232.235 358.476 227.576 358.476Z" fill="url(#paint4_linear_209_191)"/>
<path d="M94.7577 470.367C79.0954 470.367 71.2758 450.423 82.3247 438.734L154.639 362.488C157.937 359.006 162.412 357.069 167.072 357.069C182.734 357.069 190.554 377.013 179.505 388.702L107.191 464.949C103.869 468.407 99.4171 470.367 94.7577 470.367Z" fill="url(#paint5_linear_209_191)"/>
<path d="M292.994 799.353C277.332 799.353 269.512 779.41 280.561 767.721L325.472 720.363C328.77 716.882 333.245 714.945 337.905 714.945C353.567 714.945 361.387 734.889 350.338 746.578L305.427 793.935C302.128 797.394 297.653 799.353 292.994 799.353Z" fill="url(#paint6_linear_209_191)"/>
<path d="M454.39 135.847C438.728 135.847 430.909 115.903 441.958 104.214L486.868 56.8566C490.167 53.3752 494.642 51.4385 499.301 51.4385C514.964 51.4385 522.783 71.382 511.734 83.0714L466.823 130.428C463.525 133.887 459.05 135.847 454.39 135.847Z" fill="url(#paint7_linear_209_191)"/>
<path d="M230.668 554.775C215.006 554.775 207.186 534.831 218.235 523.142L263.146 475.785C266.444 472.303 270.919 470.367 275.579 470.367C291.241 470.367 299.06 490.31 288.012 502L243.101 549.357C239.779 552.815 235.327 554.775 230.668 554.775Z" fill="url(#paint8_linear_209_191)"/>
<path d="M737.464 559.087C743.462 558.994 748.236 553.761 748.098 547.443L739.494 150.487C739.263 139.536 729.737 131.42 719.541 133.449L272.902 222.676C265.082 224.244 259.361 231.368 259.2 239.783L253.295 567.433L737.464 559.087Z" fill="#DEDEDE"/>
<path d="M699.636 564.113L251.105 580.482L23.8981 672.591L23.3907 665.144L0.0703125 671.969L1.80031 684.972L1.93871 684.949C2.35391 685.964 3.23045 686.771 4.54525 686.794L557.592 694.287C575.699 694.541 593.345 688.246 607.6 676.488L739.611 567.663C743.555 564.412 745.539 559.202 744.847 553.968L744.316 549.933L699.636 564.113Z" fill="#C2C2C2"/>
<path d="M744.316 549.956L735.643 151.063C735.412 140.112 725.885 131.996 715.69 134.025L269.05 223.252C261.23 224.82 255.51 231.944 255.348 240.359L249.443 568.009L744.316 549.956Z" fill="#404040"/>
<path d="M272.304 240.821L266.768 549.449L726.948 532.664L718.667 151.663L272.304 240.821Z" fill="url(#paint9_linear_209_191)"/>
<mask id="mask0_209_191" style="mask-type:luminance" maskUnits="userSpaceOnUse" x="266" y="151" width="461" height="399">
<path d="M272.304 240.821L266.768 549.449L726.948 532.664L718.667 151.663L272.304 240.821Z" fill="white"/>
</mask>
<g mask="url(#mask0_209_191)">
<path opacity="0.3" d="M410.774 173.29C430.011 191.504 432.872 222.192 430.173 249.306C427.474 276.42 420.623 303.81 425.49 330.578C430.311 357.162 447.38 381.14 470.586 392.691C493.791 404.242 522.624 402.721 544.214 388.08C566.889 372.679 583.797 343.328 610.762 342.521C633.851 341.83 651.405 362.741 670.481 376.483C700.307 397.971 740.235 402.882 773.935 389.233C807.636 375.584 834.185 343.743 842.697 306.738C846.457 290.392 846.134 271.14 834.9 259.197C823.736 247.323 805.883 246.746 790.105 248.245C751.561 251.911 713.847 263.301 675.187 265.445C636.527 267.566 594.615 258.62 568.365 228.624C532.981 188.207 536.902 124.273 510.56 76.8003C492.13 43.6226 458.522 20.336 422.307 15.6787C386.115 11.0444 348.171 25.1547 322.751 52.7067C307.62 69.0995 296.686 90.7031 296.086 113.552C295.533 134.071 311.472 181.867 337.099 177.44C349.14 175.365 358.459 162.938 371.953 161.278C385.7 159.618 400.325 163.399 410.774 173.29Z" fill="url(#paint10_linear_209_191)"/>
</g>
<mask id="mask1_209_191" style="mask-type:luminance" maskUnits="userSpaceOnUse" x="266" y="151" width="461" height="399">
<path d="M272.304 240.821L266.768 549.449L726.948 532.664L718.667 151.663L272.304 240.821Z" fill="white"/>
</mask>
<g mask="url(#mask1_209_191)">
<path opacity="0.3" d="M145.159 406.478C154.34 424.785 173.278 436.059 192.654 439.356C212.03 442.653 231.913 438.918 250.805 433.293C300.929 418.329 347.316 389.647 384.153 350.821C405.052 328.802 423.643 303.026 450.055 289.054C476.466 275.082 514.457 278.333 528.551 305.723C545.804 339.27 517.755 385.382 537.339 417.476C548.019 434.999 569.655 441.454 589.4 441.155C609.146 440.855 628.545 435.252 648.29 434.814C668.035 434.376 689.694 440.463 700.743 457.732C710.754 473.387 709.324 495.152 700.259 511.429C681.852 544.515 639.34 553.391 603.448 547.166C567.556 540.941 534.156 523.396 498.333 516.732C462.511 510.069 420.045 517.77 400.531 550.141C385.56 574.949 387.982 607.527 375.78 633.972C362.24 663.277 331.953 681.007 301.321 685.456C270.711 689.906 239.618 682.874 210.023 673.513C179.621 663.899 148.343 650.573 128.99 624.058C118.679 609.925 112.635 589.405 121.977 574.534C130.72 560.631 150.003 556.389 156.808 541.31C165.02 523.142 149.012 502.069 131.112 495.083C113.212 488.097 93.2134 489.203 75.2444 482.402C50.2632 472.972 31.2563 446.665 31.4408 418.698C31.6253 390.731 52.5699 363.848 78.8889 360.366C96.0275 358.107 113.327 365.116 127.306 375.814C141.284 386.512 152.449 400.691 163.474 414.732L145.159 406.478Z" fill="url(#paint11_linear_209_191)"/>
</g>
<path d="M249.444 568.009L744.316 549.933L605.939 664.014C591.684 675.773 574.038 682.044 555.93 681.814L2.88395 674.321C-0.322318 674.274 -1.12966 669.594 1.86901 668.372L249.444 568.009Z" fill="#DEDEDE"/>
<path d="M327.777 572.782C328.746 572.736 328.7 573.058 327.593 573.52L319.658 576.747C318.527 577.208 316.797 577.624 315.806 577.647L301.227 578.223C300.236 578.269 300.351 577.923 301.504 577.462L309.554 574.257C310.685 573.819 312.369 573.427 313.36 573.381L327.777 572.782Z" fill="#404040"/>
<path d="M310.339 579.468C311.354 579.422 311.216 579.791 310.063 580.252L294.054 586.777C292.855 587.261 291.056 587.699 290.041 587.722L276.616 588.183C275.601 588.23 275.785 587.861 277.008 587.377L293.224 580.898C294.4 580.437 296.13 580.022 297.122 579.975L310.339 579.468Z" fill="#404040"/>
<path d="M276.155 599.988C277.216 599.965 277.031 600.38 275.74 600.91L257.655 608.449C256.295 609.026 254.311 609.487 253.227 609.51L221.556 610.248C220.518 610.271 220.795 609.856 222.202 609.279L240.701 601.878C242.039 601.348 243.931 600.887 244.969 600.864L276.155 599.988Z" fill="#404040"/>
<path d="M296.384 589.267C297.422 589.221 297.26 589.613 296.038 590.12L279.061 597.129C277.769 597.659 275.901 598.097 274.863 598.143L249.928 598.881C248.89 598.904 249.12 598.512 250.435 598.005L267.735 591.088C268.981 590.581 270.803 590.166 271.818 590.12L296.384 589.267Z" fill="#404040"/>
<path d="M354.812 577.739C355.85 577.693 355.804 578.062 354.697 578.546L339.242 585.209C338.066 585.716 336.267 586.154 335.206 586.177L321.112 586.661C320.051 586.708 320.143 586.339 321.32 585.831L337.005 579.214C338.135 578.73 339.911 578.315 340.949 578.269L354.812 577.739Z" fill="#404040"/>
<path d="M318.944 588.529C320.005 588.483 319.89 588.875 318.691 589.382L302.013 596.46C300.745 596.991 298.876 597.452 297.792 597.475L283.583 597.89C282.522 597.913 282.684 597.521 283.975 596.991L300.883 589.959C302.106 589.451 303.928 589.013 304.989 588.967L318.944 588.529Z" fill="#404040"/>
<path d="M390.428 586.131C391.581 586.085 391.604 586.5 390.474 587.008L374.766 594.316C373.566 594.87 371.675 595.331 370.498 595.377L355.136 595.815C354.006 595.838 354.029 595.446 355.251 594.893L371.236 587.63C372.39 587.1 374.235 586.662 375.365 586.616L390.428 586.131Z" fill="#404040"/>
<path d="M366 586.938C367.107 586.892 367.084 587.284 365.908 587.814L349.853 595.054C348.631 595.607 346.739 596.068 345.609 596.092L330.662 596.53C329.532 596.553 329.624 596.161 330.869 595.607L347.178 588.437C348.354 587.93 350.199 587.469 351.283 587.422L366 586.938Z" fill="#404040"/>
<path d="M377.833 576.84C378.917 576.794 378.917 577.163 377.833 577.647L362.678 584.379C361.524 584.886 359.725 585.324 358.618 585.371L344.155 585.878C343.094 585.924 343.14 585.532 344.294 585.048L359.679 578.362C360.786 577.877 362.562 577.462 363.6 577.416L377.833 576.84Z" fill="#404040"/>
<path d="M342.171 587.745C343.256 587.699 343.209 588.091 342.01 588.622L325.633 595.792C324.387 596.322 322.496 596.783 321.388 596.829L306.833 597.245C305.749 597.268 305.841 596.876 307.11 596.345L323.741 589.244C324.941 588.737 326.786 588.276 327.87 588.253L342.171 587.745Z" fill="#404040"/>
<path d="M669.696 558.349C671.103 558.28 671.679 558.648 670.964 559.156L665.89 562.822C665.151 563.352 663.421 563.813 661.991 563.859L641.416 564.689C640.032 564.735 639.524 564.366 640.286 563.859L645.614 560.216C646.352 559.709 648.036 559.271 649.42 559.202L669.696 558.349Z" fill="#404040"/>
<path d="M638.741 559.663C640.101 559.617 640.586 559.963 639.848 560.47L634.45 564.09C633.666 564.62 631.959 565.081 630.575 565.127L610.599 565.934C609.238 565.98 608.8 565.611 609.607 565.104L615.236 561.507C616.02 561 617.704 560.562 619.042 560.516L638.741 559.663Z" fill="#404040"/>
<path d="M401.406 575.917C402.514 575.871 402.537 576.24 401.476 576.724L386.667 583.526C385.536 584.033 383.737 584.471 382.607 584.517L367.775 585.025C366.668 585.071 366.691 584.679 367.821 584.172L382.907 577.439C383.991 576.955 385.744 576.517 386.851 576.471L401.406 575.917Z" fill="#404040"/>
<path d="M298.807 599.296C299.891 599.273 299.752 599.688 298.461 600.242L280.676 607.85C279.338 608.427 277.355 608.911 276.224 608.934L261.646 609.28C260.562 609.303 260.77 608.865 262.131 608.288L280.169 600.749C281.46 600.196 283.398 599.734 284.459 599.711L298.807 599.296Z" fill="#404040"/>
<path d="M200.45 624.543C201.257 624.519 201.004 624.888 199.873 625.349L173.208 636.232C172.009 636.716 170.348 637.131 169.518 637.131L153.233 637.269C152.425 637.269 152.771 636.877 153.971 636.393L180.913 625.626C182.043 625.165 183.634 624.796 184.419 624.773L200.45 624.543Z" fill="#404040"/>
<path d="M259.708 611.424C260.815 611.401 260.561 611.862 259.177 612.438L239.916 620.577C238.463 621.199 236.387 621.707 235.28 621.707L191.154 622.444C190.092 622.468 190.438 622.006 191.938 621.407L211.775 613.476C213.205 612.899 215.189 612.415 216.25 612.392L259.708 611.424Z" fill="#404040"/>
<path d="M322.657 598.627C323.787 598.604 323.672 599.019 322.426 599.573L304.942 607.273C303.627 607.85 301.62 608.334 300.49 608.38L285.543 608.726C284.412 608.749 284.574 608.311 285.912 607.735L303.65 600.103C304.919 599.55 306.856 599.089 307.964 599.042L322.657 598.627Z" fill="#404040"/>
<path d="M425.511 574.972C426.641 574.926 426.71 575.295 425.672 575.779L411.209 582.627C410.125 583.157 408.303 583.595 407.15 583.641L391.926 584.171C390.772 584.218 390.772 583.826 391.879 583.318L406.619 576.517C407.68 576.033 409.433 575.595 410.563 575.549L425.511 574.972Z" fill="#404040"/>
<path d="M224.324 624.174C225.154 624.151 224.924 624.543 223.817 625.004L197.497 636.048C196.321 636.532 194.637 636.947 193.807 636.97L177.014 637.108C176.184 637.108 176.507 636.716 177.683 636.232L204.302 625.327C205.432 624.866 207.024 624.474 207.831 624.474L224.324 624.174Z" fill="#404040"/>
<path d="M283.444 610.893C284.574 610.87 284.366 611.331 283.005 611.931L264.045 620.162C262.614 620.784 260.538 621.292 259.385 621.315L244.323 621.568C243.192 621.591 243.446 621.107 244.899 620.485L264.091 612.346C265.475 611.77 267.481 611.262 268.589 611.239L283.444 610.893Z" fill="#404040"/>
<path d="M471.161 566.718C472.315 566.672 472.476 567.018 471.507 567.479L464.61 570.914C463.619 571.398 461.888 571.836 460.735 571.883L443.781 572.551C442.628 572.597 442.489 572.251 443.504 571.767L450.563 568.378C451.555 567.894 453.262 567.479 454.392 567.433L471.161 566.718Z" fill="#404040"/>
<path d="M347.153 597.936C348.306 597.913 348.214 598.328 346.992 598.904L329.853 606.697C328.561 607.297 326.578 607.781 325.401 607.804L310.039 608.15C308.885 608.173 309.024 607.735 310.339 607.135L327.754 599.412C329 598.858 330.937 598.374 332.067 598.351L347.153 597.936Z" fill="#404040"/>
<path d="M450.332 574.004C451.508 573.958 451.623 574.327 450.608 574.834L436.515 581.751C435.454 582.281 433.631 582.719 432.432 582.765L416.839 583.319C415.662 583.365 415.593 582.973 416.677 582.465L431.071 575.595C432.109 575.088 433.885 574.649 435.038 574.603L450.332 574.004Z" fill="#404040"/>
<path d="M248.589 623.805C249.443 623.782 249.235 624.174 248.151 624.635L222.224 635.817C221.071 636.324 219.387 636.739 218.51 636.739L201.257 636.877C200.38 636.877 200.68 636.486 201.856 635.978L228.106 624.911C229.213 624.45 230.782 624.058 231.635 624.035L248.589 623.805Z" fill="#404040"/>
<path d="M308.101 610.34C309.255 610.317 309.116 610.778 307.778 611.378L289.164 619.701C287.756 620.323 285.657 620.854 284.481 620.877L269.003 621.13C267.85 621.153 268.034 620.669 269.465 620.047L288.356 611.793C289.717 611.193 291.747 610.686 292.9 610.663L308.101 610.34Z" fill="#404040"/>
<path d="M497.457 565.612C498.656 565.565 498.864 565.911 497.918 566.395L491.229 569.854C490.26 570.338 488.553 570.776 487.331 570.822L469.915 571.514C468.739 571.56 468.577 571.214 469.569 570.707L476.42 567.272C477.366 566.787 479.073 566.372 480.226 566.326L497.457 565.612Z" fill="#404040"/>
<path d="M415.523 585.278C416.676 585.232 416.745 585.647 415.638 586.178L400.322 593.579C399.169 594.132 397.254 594.616 396.078 594.639L380.3 595.1C379.124 595.146 379.101 594.708 380.277 594.155L395.893 586.823C397.023 586.293 398.869 585.832 400.045 585.786L415.523 585.278Z" fill="#404040"/>
<path d="M372.273 597.221C373.45 597.198 373.45 597.613 372.227 598.189L355.458 606.075C354.189 606.674 352.182 607.181 350.983 607.204L335.205 607.573C334.029 607.596 334.075 607.158 335.39 606.559L352.436 598.743C353.659 598.189 355.619 597.705 356.773 597.659L372.273 597.221Z" fill="#404040"/>
<path d="M475.843 573.012C477.019 572.966 477.204 573.335 476.212 573.842L462.51 580.828C461.472 581.358 459.65 581.82 458.45 581.866L442.419 582.419C441.22 582.465 441.081 582.073 442.142 581.543L456.144 574.603C457.159 574.096 458.935 573.658 460.111 573.612L475.843 573.012Z" fill="#404040"/>
<path d="M333.475 609.787C334.675 609.764 334.559 610.225 333.245 610.848L314.999 619.286C313.615 619.932 311.539 620.462 310.316 620.462L294.377 620.716C293.178 620.739 293.362 620.254 294.769 619.609L313.315 611.263C314.653 610.663 316.66 610.156 317.836 610.133L333.475 609.787Z" fill="#404040"/>
<path d="M279.983 623.344C280.86 623.321 280.721 623.713 279.637 624.197L254.241 635.563C253.111 636.071 251.404 636.509 250.504 636.509L226.169 636.693C225.292 636.693 225.546 636.301 226.699 635.794L252.557 624.589C253.641 624.128 255.256 623.713 256.109 623.713L279.983 623.344Z" fill="#404040"/>
<path d="M524.468 564.482C525.691 564.436 525.968 564.781 525.068 565.266L518.609 568.747C517.687 569.254 515.934 569.692 514.688 569.738L496.788 570.453C495.566 570.499 495.358 570.153 496.327 569.646L502.97 566.188C503.893 565.704 505.577 565.289 506.776 565.219L524.468 564.482Z" fill="#404040"/>
<path d="M441.105 584.402C442.328 584.356 442.42 584.771 441.336 585.301L426.412 592.771C425.282 593.348 423.39 593.809 422.144 593.855L405.952 594.339C404.729 594.385 404.683 593.947 405.836 593.394L421.083 585.97C422.191 585.439 424.013 584.978 425.212 584.932L441.105 584.402Z" fill="#404040"/>
<path d="M398.131 596.507C399.354 596.484 399.354 596.922 398.177 597.475L381.8 605.452C380.554 606.052 378.571 606.559 377.325 606.582L361.086 606.951C359.864 606.974 359.91 606.513 361.178 605.937L377.856 598.028C379.055 597.452 380.993 596.968 382.192 596.945L398.131 596.507Z" fill="#404040"/>
<path d="M501.978 571.998C503.201 571.952 503.431 572.321 502.486 572.828L489.222 579.906C488.207 580.437 486.385 580.898 485.139 580.944L468.67 581.52C467.447 581.566 467.263 581.174 468.301 580.644L481.91 573.635C482.902 573.128 484.678 572.69 485.855 572.644L501.978 571.998Z" fill="#404040"/>
<path d="M359.563 609.21C360.786 609.187 360.763 609.671 359.471 610.271L341.617 618.825C340.257 619.47 338.158 620 336.912 620.024L320.535 620.3C319.312 620.323 319.404 619.816 320.788 619.194L338.965 610.732C340.28 610.133 342.31 609.602 343.532 609.579L359.563 609.21Z" fill="#404040"/>
<path d="M551.848 563.329C553.094 563.283 553.44 563.629 552.563 564.113L546.335 567.64C545.435 568.148 543.705 568.586 542.414 568.632L524.03 569.37C522.784 569.416 522.53 569.07 523.453 568.563L529.865 565.058C530.765 564.574 532.449 564.136 533.672 564.09L551.848 563.329Z" fill="#404040"/>
<path d="M467.539 583.526C468.784 583.48 468.946 583.895 467.908 584.425L453.399 591.988C452.292 592.564 450.377 593.048 449.109 593.094L432.477 593.578C431.232 593.624 431.117 593.186 432.224 592.633L447.056 585.14C448.117 584.61 449.985 584.125 451.208 584.079L467.539 583.526Z" fill="#404040"/>
<path d="M424.474 595.746C425.719 595.7 425.812 596.161 424.658 596.737L408.696 604.807C407.497 605.429 405.467 605.937 404.198 605.96L387.498 606.352C386.275 606.375 386.229 605.914 387.475 605.314L403.76 597.314C404.936 596.737 406.874 596.253 408.096 596.207L424.474 595.746Z" fill="#404040"/>
<path d="M528.827 570.96C530.072 570.914 530.349 571.283 529.426 571.814L516.601 578.961C515.633 579.491 513.81 579.975 512.542 580.022L495.634 580.621C494.365 580.667 494.134 580.275 495.126 579.745L508.297 572.667C509.243 572.159 511.019 571.698 512.265 571.652L528.827 570.96Z" fill="#404040"/>
<path d="M386.391 608.634C387.66 608.611 387.637 609.095 386.391 609.718L368.953 618.364C367.638 619.009 365.539 619.563 364.247 619.586L347.362 619.862C346.094 619.886 346.163 619.378 347.524 618.733L365.308 610.156C366.577 609.533 368.607 609.026 369.852 608.98L386.391 608.634Z" fill="#404040"/>
<path d="M580.334 562.13C581.626 562.084 582.018 562.43 581.188 562.914L575.236 566.465C574.383 566.972 572.63 567.433 571.315 567.479L552.423 568.24C551.155 568.286 550.832 567.917 551.708 567.41L557.867 563.882C558.721 563.398 560.451 562.96 561.673 562.914L580.334 562.13Z" fill="#404040"/>
<path d="M494.735 582.604C496.027 582.557 496.211 582.972 495.197 583.526L481.149 591.18C480.088 591.757 478.196 592.264 476.882 592.287L459.743 592.794C458.451 592.84 458.313 592.402 459.397 591.826L473.791 584.241C474.829 583.687 476.674 583.226 477.92 583.18L494.735 582.604Z" fill="#404040"/>
<path d="M451.761 594.985C453.053 594.939 453.191 595.4 452.084 595.976L436.583 604.138C435.407 604.76 433.4 605.268 432.085 605.314L414.9 605.706C413.609 605.729 413.516 605.268 414.716 604.645L430.586 596.552C431.716 595.976 433.677 595.469 434.945 595.423L451.761 594.985Z" fill="#404040"/>
<path d="M556.369 569.877C557.661 569.831 557.984 570.2 557.108 570.73L544.767 577.947C543.844 578.5 542.022 578.961 540.707 579.007L523.315 579.607C522 579.653 521.746 579.261 522.715 578.707L535.425 571.56C536.347 571.053 538.101 570.592 539.369 570.546L556.369 569.877Z" fill="#404040"/>
<path d="M413.794 608.012C415.086 607.988 415.132 608.473 413.932 609.095L396.932 617.856C395.64 618.525 393.541 619.078 392.227 619.101L374.834 619.378C373.566 619.401 373.542 618.894 374.857 618.225L392.203 609.533C393.449 608.911 395.502 608.38 396.748 608.357L413.794 608.012Z" fill="#404040"/>
<path d="M609.029 560.908C610.344 560.862 610.782 561.208 609.998 561.715L604.324 565.312C603.516 565.819 601.786 566.28 600.448 566.326L581.026 567.11C579.711 567.156 579.342 566.787 580.173 566.28L586.078 562.706C586.908 562.199 588.592 561.761 589.884 561.715L609.029 560.908Z" fill="#404040"/>
<path d="M522.645 581.658C523.96 581.612 524.237 582.027 523.268 582.581L509.728 590.304C508.69 590.881 506.775 591.388 505.437 591.434L487.837 591.941C486.523 591.987 486.292 591.549 487.33 590.973L501.262 583.318C502.254 582.765 504.122 582.281 505.437 582.235L522.645 581.658Z" fill="#404040"/>
<path d="M479.833 594.201C481.148 594.155 481.333 594.616 480.249 595.215L465.232 603.469C464.102 604.092 462.095 604.622 460.757 604.645L443.042 605.06C441.704 605.083 441.589 604.622 442.765 604L458.174 595.815C459.281 595.215 461.219 594.708 462.51 594.685L479.833 594.201Z" fill="#404040"/>
<path d="M584.696 568.77C586.033 568.724 586.426 569.093 585.572 569.623L573.762 576.909C572.862 577.462 571.04 577.946 569.679 577.992L551.826 578.615C550.488 578.661 550.142 578.269 551.064 577.716L563.29 570.476C564.166 569.946 565.942 569.485 567.257 569.439L584.696 568.77Z" fill="#404040"/>
<path d="M442.189 607.389C443.527 607.366 443.665 607.85 442.466 608.496L425.973 617.372C424.728 618.041 422.605 618.594 421.221 618.617L403.322 618.917C401.984 618.94 401.915 618.433 403.183 617.764L420.068 608.98C421.291 608.357 423.343 607.804 424.658 607.781L442.189 607.389Z" fill="#404040"/>
<path d="M551.363 580.69C552.701 580.644 553.047 581.059 552.101 581.635L539.069 589.451C538.077 590.051 536.162 590.558 534.801 590.581L516.671 591.111C515.31 591.158 515.01 590.719 516.025 590.12L529.473 582.373C530.442 581.82 532.31 581.336 533.648 581.29L551.363 580.69Z" fill="#404040"/>
<path d="M508.689 593.371C510.05 593.325 510.327 593.786 509.266 594.385L494.78 602.755C493.673 603.4 491.666 603.931 490.259 603.954L472.06 604.369C470.699 604.392 470.491 603.931 471.621 603.285L486.522 595.008C487.584 594.408 489.544 593.901 490.882 593.855L508.689 593.371Z" fill="#404040"/>
<path d="M613.805 567.64C615.189 567.594 615.604 567.986 614.797 568.494L603.54 575.848C602.687 576.402 600.887 576.886 599.48 576.932L581.096 577.578C579.712 577.624 579.32 577.232 580.22 576.678L591.915 569.37C592.745 568.839 594.521 568.378 595.859 568.332L613.805 567.64Z" fill="#404040"/>
<path d="M471.483 606.743C472.867 606.72 473.028 607.205 471.898 607.85L455.913 616.865C454.69 617.557 452.591 618.11 451.184 618.133L432.708 618.433C431.324 618.456 431.208 617.926 432.454 617.257L448.854 608.334C450.031 607.689 452.061 607.158 453.421 607.112L471.483 606.743Z" fill="#404040"/>
<path d="M417.23 621.176C418.614 621.153 418.66 621.707 417.391 622.398L395.616 634.134C394.232 634.872 392.018 635.471 390.588 635.494L258.739 636.532C257.516 636.532 257.747 636.002 259.269 635.31L283.628 624.335C285.058 623.69 287.203 623.136 288.403 623.136L417.23 621.176Z" fill="#404040"/>
<path d="M580.889 579.675C582.273 579.629 582.665 580.044 581.766 580.621L569.31 588.529C568.364 589.128 566.473 589.636 565.043 589.682L546.382 590.235C544.998 590.281 544.652 589.843 545.62 589.244L558.515 581.405C559.437 580.851 561.306 580.344 562.644 580.298L580.889 579.675Z" fill="#404040"/>
<path d="M538.446 592.541C539.853 592.495 540.153 592.956 539.161 593.578L525.229 602.04C524.168 602.685 522.184 603.216 520.731 603.262L501.932 603.7C500.525 603.723 500.271 603.239 501.355 602.616L515.726 594.224C516.764 593.624 518.701 593.094 520.062 593.071L538.446 592.541Z" fill="#404040"/>
<path d="M501.609 606.075C503.039 606.052 503.293 606.559 502.186 607.205L486.777 616.335C485.601 617.027 483.478 617.603 482.025 617.626L462.995 617.949C461.565 617.972 461.358 617.442 462.58 616.75L478.427 607.712C479.557 607.066 481.633 606.513 483.017 606.49L501.609 606.075Z" fill="#404040"/>
<path d="M611.267 578.661C612.697 578.615 613.182 579.03 612.328 579.607L600.472 587.607C599.572 588.206 597.658 588.737 596.182 588.783L576.967 589.336C575.514 589.382 575.099 588.921 576.044 588.322L588.385 580.39C589.262 579.814 591.13 579.33 592.537 579.261L611.267 578.661Z" fill="#404040"/>
<path d="M659.316 565.865C660.746 565.819 661.299 566.211 660.561 566.741L650.204 574.211C649.42 574.788 647.598 575.272 646.122 575.318L610.299 576.563C608.869 576.609 608.431 576.194 609.284 575.641L620.448 568.263C621.256 567.733 623.009 567.248 624.393 567.202L659.316 565.865Z" fill="#404040"/>
<path d="M454.946 620.692C456.007 620.669 456.122 621.084 455.222 621.615L433.447 634.042C432.456 634.595 430.749 635.079 429.664 635.079L400.185 635.31C399.101 635.31 399.101 634.872 400.116 634.318L422.652 622.076C423.598 621.568 425.19 621.13 426.251 621.107L454.946 620.692Z" fill="#404040"/>
<path d="M569.031 591.665C570.485 591.619 570.877 592.08 569.931 592.702L556.598 601.279C555.584 601.925 553.577 602.478 552.077 602.524L532.725 602.962C531.271 602.985 530.925 602.501 531.986 601.856L545.78 593.371C546.772 592.771 548.733 592.241 550.14 592.195L569.031 591.665Z" fill="#404040"/>
<path d="M532.701 605.406C534.178 605.383 534.477 605.89 533.416 606.559L518.631 615.827C517.5 616.542 515.401 617.118 513.902 617.142L494.226 617.464C492.75 617.487 492.519 616.957 493.673 616.265L508.943 607.112C510.05 606.444 512.08 605.89 513.51 605.867L532.701 605.406Z" fill="#404040"/>
<path d="M642.569 577.6C644.046 577.554 644.576 577.992 643.769 578.569L632.559 586.662C631.705 587.284 629.814 587.791 628.291 587.837L608.477 588.414C607.001 588.46 606.516 587.999 607.416 587.399L619.134 579.376C619.987 578.799 621.81 578.292 623.263 578.246L642.569 577.6Z" fill="#404040"/>
<path d="M486.408 620.208C487.515 620.185 487.677 620.623 486.8 621.13L465.786 633.742C464.841 634.318 463.134 634.779 462.003 634.802L439.606 634.987C438.475 634.987 438.406 634.549 439.375 633.972L461.012 621.499C461.911 620.969 463.526 620.531 464.61 620.508L486.408 620.208Z" fill="#404040"/>
<path d="M625.477 590.12C627 590.074 627.53 590.558 626.677 591.18L614.521 599.965C613.598 600.633 611.568 601.187 610.023 601.233L564.466 602.293C562.967 602.339 562.574 601.832 563.589 601.187L576.783 592.587C577.729 591.964 579.667 591.434 581.12 591.388L625.477 590.12Z" fill="#404040"/>
<path d="M506.361 627.263C507.906 627.24 508.183 627.84 506.983 628.601L499.625 633.281C498.403 634.065 496.142 634.71 494.574 634.733L471.968 634.918C470.469 634.941 470.238 634.318 471.53 633.535L479.142 628.923C480.364 628.186 482.602 627.563 484.101 627.54L506.361 627.263Z" fill="#404040"/>
<path d="M552.193 619.125C553.762 619.102 554.154 619.678 553.047 620.416L544.443 626.226L515.748 626.572L524.698 620.831C525.828 620.093 527.996 619.494 529.519 619.471L552.193 619.125Z" fill="#404040"/>
<path d="M605.892 603.792C607.461 603.746 607.945 604.276 606.999 604.968L593.759 614.513C592.744 615.251 590.645 615.851 589.031 615.874L525.597 616.911C524.075 616.934 523.752 616.381 524.882 615.689L539.553 606.398C540.614 605.729 542.643 605.176 544.12 605.13L605.892 603.792Z" fill="#404040"/>
<path d="M543.475 626.895L534.548 632.935C533.371 633.719 531.111 634.388 529.496 634.411L506.106 634.595C504.538 634.618 504.261 633.973 505.461 633.189L514.757 627.217L543.475 626.895Z" fill="#404040"/>
<path d="M575.469 626.456C577.13 626.433 577.614 627.056 576.53 627.84L569.863 632.658C568.756 633.465 566.45 634.134 564.766 634.157L540.592 634.341C538.954 634.364 538.562 633.719 539.738 632.912L546.705 628.162C547.835 627.401 550.072 626.756 551.687 626.733L575.469 626.456Z" fill="#404040"/>
<path d="M350.083 571.836C351.098 571.79 351.052 572.113 349.968 572.574L342.194 575.848C341.087 576.309 339.357 576.724 338.342 576.77L323.418 577.37C322.403 577.416 322.472 577.07 323.603 576.609L331.515 573.358C332.622 572.897 334.306 572.505 335.321 572.459L350.083 571.836Z" fill="#404040"/>
<path d="M332.3 578.615C333.338 578.569 333.245 578.938 332.115 579.399L316.361 585.993C315.161 586.5 313.362 586.915 312.324 586.962L298.576 587.446C297.561 587.492 297.677 587.123 298.899 586.616L314.861 580.068C316.015 579.584 317.791 579.169 318.783 579.146L332.3 578.615Z" fill="#404040"/>
<path d="M446.041 567.779C447.171 567.732 447.31 568.078 446.318 568.539L439.214 571.929C438.199 572.413 436.446 572.851 435.315 572.874L418.776 573.543C417.646 573.589 417.6 573.243 418.638 572.759L425.881 569.392C426.896 568.931 428.58 568.516 429.687 568.47L446.041 567.779Z" fill="#404040"/>
<path d="M421.06 568.839C422.167 568.793 422.236 569.139 421.221 569.6L413.932 572.966C412.894 573.45 411.164 573.865 410.057 573.911L393.957 574.557C392.873 574.603 392.849 574.257 393.91 573.773L401.338 570.43C402.376 569.969 404.06 569.554 405.144 569.508L421.06 568.839Z" fill="#404040"/>
<path d="M397.024 569.853C398.108 569.807 398.131 570.13 397.093 570.614L389.643 573.934C388.582 574.419 386.851 574.834 385.767 574.88L370.059 575.502C368.998 575.548 369.021 575.202 370.105 574.718L377.694 571.421C378.755 570.96 380.439 570.568 381.5 570.522L397.024 569.853Z" fill="#404040"/>
<path d="M373.265 570.868C374.303 570.822 374.304 571.145 373.242 571.606L365.607 574.903C364.523 575.364 362.793 575.779 361.732 575.825L346.416 576.425C345.378 576.471 345.424 576.125 346.531 575.664L354.282 572.39C355.366 571.929 357.073 571.537 358.088 571.491L373.265 570.868Z" fill="#404040"/>
<path d="M738.41 564.874L728.883 572.851C727.753 573.796 726.138 573.589 725.239 572.413C724.339 571.237 724.547 569.508 725.654 568.586L735.18 560.608C736.311 559.663 737.925 559.871 738.825 561.046C739.701 562.199 739.517 563.928 738.41 564.874Z" fill="#C2C2C2"/>
<g opacity="0.2">
<path d="M383.023 563.144L427.819 561.507L710.132 135.132L659.754 145.184L383.023 563.144Z" fill="white"/>
<path d="M358.595 564.02L632.281 150.671L531.549 170.799L269.027 567.294L358.595 564.02Z" fill="white"/>
</g>
<defs>
<linearGradient id="paint0_linear_209_191" x1="449.583" y1="811.241" x2="449.583" y2="67.668" gradientUnits="userSpaceOnUse">
<stop stop-color="#FFCB5D"/>
<stop offset="1" stop-color="#FF705D"/>
</linearGradient>
<linearGradient id="paint1_linear_209_191" x1="295.856" y1="223.364" x2="719.617" y2="223.364" gradientUnits="userSpaceOnUse">
<stop offset="1.3e-07" stop-color="#6DC1F1"/>
<stop offset="1" stop-color="#785DFF"/>
</linearGradient>
<linearGradient id="paint2_linear_209_191" x1="116.578" y1="561.523" x2="540.339" y2="561.523" gradientUnits="userSpaceOnUse">
<stop stop-color="#6DC1F1"/>
<stop offset="1" stop-color="#785DFF"/>
</linearGradient>
<linearGradient id="paint3_linear_209_191" x1="400.871" y1="563.319" x2="824.632" y2="563.319" gradientUnits="userSpaceOnUse">
<stop stop-color="#6DC1F1"/>
<stop offset="1" stop-color="#785DFF"/>
</linearGradient>
<linearGradient id="paint4_linear_209_191" x1="209.962" y1="259.985" x2="396.86" y2="259.985" gradientUnits="userSpaceOnUse">
<stop offset="4.1e-07" stop-color="#785DFF"/>
<stop offset="1" stop-color="#6DC1F1"/>
</linearGradient>
<linearGradient id="paint5_linear_209_191" x1="130.906" y1="454.276" x2="98.4694" y2="389.373" gradientUnits="userSpaceOnUse">
<stop offset="8.8e-07" stop-color="#6FC9F7"/>
<stop offset="1" stop-color="#785DFF"/>
</linearGradient>
<linearGradient id="paint6_linear_209_191" x1="275.394" y1="757.152" x2="355.511" y2="757.152" gradientUnits="userSpaceOnUse">
<stop offset="2.7e-07" stop-color="#6DC1F1"/>
<stop offset="1" stop-color="#785DFF"/>
</linearGradient>
<linearGradient id="paint7_linear_209_191" x1="436.783" y1="93.6405" x2="516.9" y2="93.6405" gradientUnits="userSpaceOnUse">
<stop stop-color="#785DFF"/>
<stop offset="1" stop-color="#6DC1F1"/>
</linearGradient>
<linearGradient id="paint8_linear_209_191" x1="213.054" y1="512.573" x2="293.171" y2="512.573" gradientUnits="userSpaceOnUse">
<stop stop-color="#785DFF"/>
<stop offset="1" stop-color="#6DC1F1"/>
</linearGradient>
<linearGradient id="paint9_linear_209_191" x1="266.759" y1="350.556" x2="726.956" y2="350.556" gradientUnits="userSpaceOnUse">
<stop stop-color="#FFCB5D"/>
<stop offset="1" stop-color="#FF705D"/>
</linearGradient>
<linearGradient id="paint10_linear_209_191" x1="296.059" y1="207.574" x2="844.869" y2="207.574" gradientUnits="userSpaceOnUse">
<stop stop-color="#FFCB5D"/>
<stop offset="1" stop-color="#FF705D"/>
</linearGradient>
<linearGradient id="paint11_linear_209_191" x1="31.4279" y1="483.86" x2="707.663" y2="483.86" gradientUnits="userSpaceOnUse">
<stop stop-color="#FFCB5D"/>
<stop offset="1" stop-color="#FF705D"/>
</linearGradient>
</defs>
</svg>
